# xmcd
#
# Track frame offsets: 
#        150
#        9003
#        16323
#        28470
#        73958
#        109178
#        140648
#        163242
#        178473
#        198428
#        214621
#        255713
#        300082
#
# Disc length: 4080 seconds
#
# Revision: 0
# Processed by: cddbd v1.5.2PL0 Copyright (c) Steve Scherf et al.
# Submitted via: ExactAudioCopy v0.95b3
#
DISCID=b90fee0d
DTITLE=Hawkwind  - Greasy Truckers Party - 1972  FLAC
DYEAR=1900
DGENRE=
TTITLE0=Announcemaent
TTITLE1=This Is Your Captain Speaking
TTITLE2=This Is Your Captain Speaking (cont)
TTITLE3=You Shouldn't Do That
TTITLE4=The Awakening
TTITLE5=Master Of The Universe
TTITLE6=Paranoia
TTITLE7=Earth Calling
TTITLE8=Silver Machine
TTITLE9=Welcome To The Future
TTITLE10=Born To Go
TTITLE11=Brainstorm
TTITLE12=DJ Andy Dunkley - End Announcement
EXTD=
EXTT0=
EXTT1=
EXTT2=
EXTT3=
EXTT4=
EXTT5=
EXTT6=
EXTT7=
EXTT8=
EXTT9=
EXTT10=
EXTT11=
EXTT12=
PLAYORDER=
